<?xml version="1.0" encoding="UTF-8" standalone="no"?>
<!-- Created with Inkscape (http://www.inkscape.org/) -->

<svg
   width="297mm"
   height="210mm"
   viewBox="0 0 297 210"
   version="1.1"
   id="svg1"
   xml:space="preserve"
   xmlns="http://www.w3.org/2000/svg"
   xmlns:svg="http://www.w3.org/2000/svg"><defs
     id="defs1"><rect
       x="130.92668"
       y="730.47998"
       width="2553.0703"
       height="214.40192"
       id="rect5" /><rect
       x="130.92668"
       y="730.47998"
       width="2553.0703"
       height="214.40192"
       id="rect6" /></defs><g
     id="layer1"><g
       id="g73"><g
         id="g49"
         transform="translate(51.961526,-29.939006)"
         style="fill:#476c89;fill-opacity:1;stroke:#01426a;stroke-opacity:1"><path
           style="fill:#476c89;fill-opacity:1;stroke:#01426a;stroke-width:0.705001;stroke-opacity:1"
           d="M 103.92305,60.000001 V 80 l 17.32051,10.000002 17.32051,-10 V 60.000001 l -17.32051,10.000001 z"
           id="path47" /><path
           style="fill:#476c89;fill-opacity:1;stroke:#01426a;stroke-width:0.705001;stroke-opacity:1"
           d="M 121.24356,49.939006 138.56407,60.000001 121.24356,70.000002 103.92305,60.000001 Z"
           id="path48" /><path
           style="fill:#476c89;fill-opacity:1;stroke:#01426a;stroke-width:0.705001;stroke-opacity:1"
           d="M 121.24356,70.000002 V 90.000001"
           id="path49" /></g><g
         id="g52"
         transform="translate(34.641016,-20.060996)"
         style="fill:#698ea6;fill-opacity:0.972549;stroke:#01426a;stroke-opacity:1"><path
           style="fill:#698ea6;fill-opacity:0.972549;stroke:#01426a;stroke-width:0.705001;stroke-opacity:1"
           d="M 103.92305,60.000001 V 80 l 17.32051,10.000002 17.32051,-10 V 60.000001 l -17.32051,10.000001 z"
           id="path50" /><path
           style="fill:#698ea6;fill-opacity:0.972549;stroke:#01426a;stroke-width:0.705001;stroke-opacity:1"
           d="M 121.24356,49.939006 138.56407,60.000001 121.24356,70.000002 103.92305,60.000001 Z"
           id="path51" /><path
           style="fill:#698ea6;fill-opacity:0.972549;stroke:#01426a;stroke-width:0.705001;stroke-opacity:1"
           d="M 121.24356,70.000002 V 90.000001"
           id="path52" /></g><g
         id="g55"
         transform="translate(17.32051,-10.030498)"
         style="fill:#244c70;fill-opacity:1;stroke:#01426a;stroke-opacity:1"><path
           style="fill:#244c70;fill-opacity:1;stroke:#01426a;stroke-width:0.705001;stroke-opacity:1"
           d="M 103.92305,60.000001 V 80 l 17.32051,10.000002 17.32051,-10 V 60.000001 l -17.32051,10.000001 z"
           id="path53" /><path
           style="fill:#244c70;fill-opacity:1;stroke:#01426a;stroke-width:0.705001;stroke-opacity:1"
           d="M 121.24356,49.939006 138.56407,60.000001 121.24356,70.000002 103.92305,60.000001 Z"
           id="path54" /><path
           style="fill:#244c70;fill-opacity:1;stroke:#01426a;stroke-width:0.705001;stroke-opacity:1"
           d="M 121.24356,70.000002 V 90.000001"
           id="path55" /></g></g><g
       id="g22"
       transform="translate(0,60.000002)"
       style="fill:#dbe3eb;fill-opacity:0.945098;stroke:#01426a;stroke-opacity:1"><path
         style="fill:#dbe3eb;fill-opacity:0.945098;stroke:#01426a;stroke-width:0.705001;stroke-opacity:1"
         d="M 103.92305,60.000001 V 80 l 17.32051,10.000002 17.32051,-10 V 60.000001 l -17.32051,10.000001 z"
         id="path20" /><path
         style="fill:#dbe3eb;fill-opacity:0.945098;stroke:#01426a;stroke-width:0.705001;stroke-opacity:1"
         d="M 121.24356,49.939006 138.56407,60.000001 121.24356,70.000002 103.92305,60.000001 Z"
         id="path21" /><path
         style="fill:#dbe3eb;fill-opacity:0.945098;stroke:#01426a;stroke-width:0.705001;stroke-opacity:1"
         d="M 121.24356,70.000002 V 90.000001"
         id="path22" /></g><g
       id="g25"
       transform="translate(17.320508,9.9999998)"
       style="stroke:#01426a;stroke-opacity:1"><path
         style="fill:#9144ac;fill-opacity:1;stroke:#01426a;stroke-width:0.705001;stroke-opacity:1"
         d="M 103.92305,60.000001 V 80 l 17.32051,10.000002 17.32051,-10 V 60.000001 l -17.32051,10.000001 z"
         id="path23" /><path
         style="fill:#9144ac;fill-opacity:1;stroke:#01426a;stroke-width:0.705001;stroke-opacity:1"
         d="M 121.24356,49.939006 138.56407,60.000001 121.24356,70.000002 103.92305,60.000001 Z"
         id="path24" /><path
         style="fill:#9144ac;fill-opacity:1;stroke:#01426a;stroke-width:0.705001;stroke-opacity:1"
         d="M 121.24356,70.000002 V 90.000001"
         id="path25" /></g><circle
       id="path29"
       style="fill:#9144ac;stroke:#01426a;stroke-width:0.264583;stroke-opacity:1"
       cx="120.87398"
       cy="70.329483"
       r="0.054859743" /><path
       style="display:inline;fill:#9144ac;fill-opacity:1;stroke:#01426a;stroke-width:0.705001;stroke-opacity:1"
       d="M 121.24356,70.000002 V 150"
       id="path30" /><g
       id="g19"
       transform="translate(-5e-6,40.030494)"
       style="display:inline;fill:#9db2c4;fill-opacity:1;stroke:#01426a;stroke-opacity:1"><path
         style="fill:#9db2c4;fill-opacity:1;stroke:#01426a;stroke-width:0.705001;stroke-opacity:1"
         d="M 103.92305,60.000001 V 80 l 17.32051,10.000002 17.32051,-10 V 60.000001 l -17.32051,10.000001 z"
         id="path17" /><path
         style="fill:#9db2c4;fill-opacity:1;stroke:#01426a;stroke-width:0.705001;stroke-opacity:1"
         d="M 121.24356,49.939006 138.56407,60.000001 121.24356,70.000002 103.92305,60.000001 Z"
         id="path18" /><path
         style="fill:#9db2c4;fill-opacity:1;stroke:#01426a;stroke-width:0.705001;stroke-opacity:1"
         d="M 121.24356,70.000002 V 90.000001"
         id="path19" /></g><g
       id="g16"
       transform="translate(-5e-6,20.030495)"
       style="display:inline;fill:#244c70;fill-opacity:1;stroke:#01426a;stroke-opacity:1"><path
         style="fill:#244c70;fill-opacity:1;stroke:#01426a;stroke-width:0.705001;stroke-opacity:1"
         d="M 103.92305,60.000001 V 80 l 17.32051,10.000002 17.32051,-10 V 60.000001 l -17.32051,10.000001 z"
         id="path14" /><path
         style="fill:#244c70;fill-opacity:1;stroke:#01426a;stroke-width:0.705001;stroke-opacity:1"
         d="M 121.24356,49.939006 138.56407,60.000001 121.24356,70.000002 103.92305,60.000001 Z"
         id="path15" /><path
         style="fill:#244c70;fill-opacity:1;stroke:#01426a;stroke-width:0.705001;stroke-opacity:1"
         d="M 121.24356,70.000002 V 90.000001"
         id="path16" /></g><g
       id="g13"
       style="display:inline;fill:#698ea6;fill-opacity:0.972549;stroke:#01426a;stroke-opacity:1"><path
         style="fill:#698ea6;fill-opacity:0.972549;stroke:#01426a;stroke-width:0.705001;stroke-opacity:1"
         d="M 103.92305,60.000001 V 80 l 17.32051,10.000002 17.32051,-10 V 60.000001 l -17.32051,10.000001 z"
         id="path11" /><path
         style="fill:#698ea6;fill-opacity:0.972549;stroke:#01426a;stroke-width:0.705001;stroke-opacity:1"
         d="M 121.24356,49.939006 138.56407,60.000001 121.24356,70.000002 103.92305,60.000001 Z"
         id="path12" /><path
         style="fill:#698ea6;fill-opacity:0.972549;stroke:#01426a;stroke-width:0.705001;stroke-opacity:1"
         d="M 121.24356,70.000002 V 90.000001"
         id="path13" /></g><g
       id="g102"
       style="display:inline;opacity:0.201"><g
         id="g82"
         transform="translate(17.320504,10.304975)"
         style="display:inline;opacity:1"><g
           id="g75"
           transform="translate(16.969618,-10.773625)"
           style="fill:#476c89;fill-opacity:1;stroke:#01426a;stroke-opacity:1"><path
             style="fill:#476c89;fill-opacity:1;stroke:#01426a;stroke-width:0.705001;stroke-opacity:1"
             d="M 103.92305,60.000001 V 80 l 17.32051,10.000002 17.32051,-10 V 60.000001 l -17.32051,10.000001 z"
             id="path73" /><path
             style="fill:#476c89;fill-opacity:1;stroke:#01426a;stroke-width:0.705001;stroke-opacity:1"
             d="M 121.24356,49.939006 138.56407,60.000001 121.24356,70.000002 103.92305,60.000001 Z"
             id="path74" /><path
             style="fill:#476c89;fill-opacity:1;stroke:#01426a;stroke-width:0.705001;stroke-opacity:1"
             d="M 121.24356,70.000002 V 90.000001"
             id="path75" /></g><g
           id="g78"
           transform="translate(51.961529,-30.304976)"
           style="fill:#698ea6;fill-opacity:0.972549;stroke:#01426a;stroke-opacity:1"><path
             style="fill:#698ea6;fill-opacity:0.972549;stroke:#01426a;stroke-width:0.705001;stroke-opacity:1"
             d="M 103.92305,60.000001 V 80 l 17.32051,10.000002 17.32051,-10 V 60.000001 l -17.32051,10.000001 z"
             id="path76" /><path
             style="opacity:0.2;fill:#698ea6;fill-opacity:0.972549;stroke:#01426a;stroke-width:0.705001;stroke-opacity:1"
             d="M 121.24356,49.939006 138.56407,60.000001 121.24356,70.000002 103.92305,60.000001 Z"
             id="path77" /><path
             style="fill:#698ea6;fill-opacity:0.972549;stroke:#01426a;stroke-width:0.705001;stroke-opacity:1"
             d="M 121.24356,70.000002 V 90.000001"
             id="path78" /></g><g
           id="g81"
           transform="translate(17.32051,-10.030498)"
           style="fill:#244c70;fill-opacity:1;stroke:#01426a;stroke-opacity:1"><path
             style="fill:#244c70;fill-opacity:1;stroke:#01426a;stroke-width:0.705001;stroke-opacity:1"
             d="M 103.92305,60.000001 V 80 l 17.32051,10.000002 17.32051,-10 V 60.000001 l -17.32051,10.000001 z"
             id="path79" /><path
             style="fill:#244c70;fill-opacity:1;stroke:#01426a;stroke-width:0.705001;stroke-opacity:1"
             d="M 121.24356,70.000002 V 90.000001"
             id="path81" /></g><g
           id="g273"
           transform="translate(34.641021,-20.24398)"
           style="fill:#476c89;fill-opacity:1;stroke:#01426a;stroke-opacity:1"><path
             style="fill:#476c89;fill-opacity:1;stroke:#01426a;stroke-width:0.705001;stroke-opacity:1"
             d="M 103.92305,60.000001 V 80 l 17.32051,10.000002 17.32051,-10 V 60.000001 l -17.32051,10.000001 z"
             id="path271" /><path
             style="fill:#476c89;fill-opacity:1;stroke:#01426a;stroke-width:0.705001;stroke-opacity:1"
             d="M 121.24356,49.939006 138.56407,60.000001 121.24356,70.000002 103.92305,60.000001 Z"
             id="path272" /><path
             style="fill:#476c89;fill-opacity:1;stroke:#01426a;stroke-width:0.705001;stroke-opacity:1"
             d="M 121.24356,70.000002 V 90.000001"
             id="path273" /></g><g
           id="g276"
           transform="translate(34.641021,-20.24398)"
           style="fill:#476c89;fill-opacity:1;stroke:#01426a;stroke-opacity:1"><path
             style="fill:#476c89;fill-opacity:1;stroke:#01426a;stroke-width:0.705001;stroke-opacity:1"
             d="M 103.92305,60.000001 V 80 l 17.32051,10.000002 17.32051,-10 V 60.000001 l -17.32051,10.000001 z"
             id="path274" /><path
             style="fill:#476c89;fill-opacity:1;stroke:#01426a;stroke-width:0.705001;stroke-opacity:1"
             d="M 121.24356,49.939006 138.56407,60.000001 121.24356,70.000002 103.92305,60.000001 Z"
             id="path275" /><path
             style="fill:#476c89;fill-opacity:1;stroke:#01426a;stroke-width:0.705001;stroke-opacity:1"
             d="M 121.24356,70.000002 V 90.000001"
             id="path276" /></g></g><g
         id="g286"
         transform="translate(17.320507,9.9390049)"
         style="display:inline;opacity:0.74"><g
           id="g279"
           transform="translate(51.961526,-29.939006)"
           style="fill:#476c89;fill-opacity:1;stroke:#01426a;stroke-opacity:1"><path
             style="fill:#476c89;fill-opacity:1;stroke:#01426a;stroke-width:0.705001;stroke-opacity:1"
             d="M 103.92305,60.000001 V 80 l 17.32051,10.000002 17.32051,-10 V 60.000001 l -17.32051,10.000001 z"
             id="path277" /><path
             style="fill:#476c89;fill-opacity:1;stroke:#01426a;stroke-width:0.705001;stroke-opacity:1"
             d="M 121.24356,49.939006 138.56407,60.000001 121.24356,70.000002 103.92305,60.000001 Z"
             id="path278" /><path
             style="fill:#476c89;fill-opacity:1;stroke:#01426a;stroke-width:0.705001;stroke-opacity:1"
             d="M 121.24356,70.000002 V 90.000001"
             id="path279" /></g><g
           id="g282"
           transform="translate(34.641016,-20.060996)"
           style="fill:#698ea6;fill-opacity:0.972549;stroke:#01426a;stroke-opacity:1"><path
             style="fill:#698ea6;fill-opacity:0.972549;stroke:#01426a;stroke-width:0.705001;stroke-opacity:1"
             d="M 103.92305,60.000001 V 80 l 17.32051,10.000002 17.32051,-10 V 60.000001 l -17.32051,10.000001 z"
             id="path280" /><path
             style="fill:#698ea6;fill-opacity:0.972549;stroke:#01426a;stroke-width:0.705001;stroke-opacity:1"
             d="M 121.24356,49.939006 138.56407,60.000001 121.24356,70.000002 103.92305,60.000001 Z"
             id="path281" /><path
             style="fill:#698ea6;fill-opacity:0.972549;stroke:#01426a;stroke-width:0.705001;stroke-opacity:1"
             d="M 121.24356,70.000002 V 90.000001"
             id="path282" /></g><g
           id="g285"
           transform="translate(17.32051,-10.030498)"
           style="fill:#244c70;fill-opacity:1;stroke:#01426a;stroke-opacity:1"><path
             style="fill:#244c70;fill-opacity:1;stroke:#01426a;stroke-width:0.705001;stroke-opacity:1"
             d="M 103.92305,60.000001 V 80 l 17.32051,10.000002 17.32051,-10 V 60.000001 l -17.32051,10.000001 z"
             id="path283" /><path
             style="fill:#244c70;fill-opacity:1;stroke:#01426a;stroke-width:0.705001;stroke-opacity:1"
             d="M 121.24356,49.939006 138.56407,60.000001 121.24356,70.000002 103.92305,60.000001 Z"
             id="path284" /><path
             style="fill:#244c70;fill-opacity:1;stroke:#01426a;stroke-width:0.705001;stroke-opacity:1"
             d="M 121.24356,70.000002 V 90.000001"
             id="path285" /></g></g><g
         id="g91"
         transform="translate(34.64102,20.243982)"
         style="display:inline;opacity:0.692"><g
           id="g84"
           transform="translate(51.961526,-29.939006)"
           style="fill:#476c89;fill-opacity:1;stroke:#01426a;stroke-opacity:1"><path
             style="fill:#476c89;fill-opacity:1;stroke:#01426a;stroke-width:0.705001;stroke-opacity:1"
             d="M 103.92305,60.000001 V 80 l 17.32051,10.000002 17.32051,-10 V 60.000001 l -17.32051,10.000001 z"
             id="path82" /><path
             style="fill:#476c89;fill-opacity:1;stroke:#01426a;stroke-width:0.705001;stroke-opacity:1"
             d="M 121.24356,49.939006 138.56407,60.000001 121.24356,70.000002 103.92305,60.000001 Z"
             id="path83" /><path
             style="fill:#476c89;fill-opacity:1;stroke:#01426a;stroke-width:0.705001;stroke-opacity:1"
             d="M 121.24356,70.000002 V 90.000001"
             id="path84" /></g><g
           id="g87"
           transform="translate(34.641016,-20.060996)"
           style="fill:#698ea6;fill-opacity:0.972549;stroke:#01426a;stroke-opacity:1"><path
             style="fill:#698ea6;fill-opacity:0.972549;stroke:#01426a;stroke-width:0.705001;stroke-opacity:1"
             d="M 103.92305,60.000001 V 80 l 17.32051,10.000002 17.32051,-10 V 60.000001 l -17.32051,10.000001 z"
             id="path85" /><path
             style="fill:#698ea6;fill-opacity:0.972549;stroke:#01426a;stroke-width:0.705001;stroke-opacity:1"
             d="M 121.24356,49.939006 138.56407,60.000001 121.24356,70.000002 103.92305,60.000001 Z"
             id="path86" /><path
             style="fill:#698ea6;fill-opacity:0.972549;stroke:#01426a;stroke-width:0.705001;stroke-opacity:1"
             d="M 121.24356,70.000002 V 90.000001"
             id="path87" /></g><g
           id="g90"
           transform="translate(17.32051,-10.030498)"
           style="fill:#244c70;fill-opacity:1;stroke:#01426a;stroke-opacity:1"><path
             style="fill:#244c70;fill-opacity:1;stroke:#01426a;stroke-width:0.705001;stroke-opacity:1"
             d="M 103.92305,60.000001 V 80 l 17.32051,10.000002 17.32051,-10 V 60.000001 l -17.32051,10.000001 z"
             id="path88" /><path
             style="fill:#244c70;fill-opacity:1;stroke:#01426a;stroke-width:0.705001;stroke-opacity:1"
             d="M 121.24356,49.939006 138.56407,60.000001 121.24356,70.000002 103.92305,60.000001 Z"
             id="path89" /><path
             style="fill:#244c70;fill-opacity:1;stroke:#01426a;stroke-width:0.705001;stroke-opacity:1"
             d="M 121.24356,70.000002 V 90.000001"
             id="path90" /></g></g><g
         id="g101"
         transform="translate(51.96153,30.365973)"
         style="display:inline;opacity:0.746"><g
           id="g94"
           transform="translate(51.961526,-29.939006)"
           style="fill:#476c89;fill-opacity:1;stroke:#01426a;stroke-opacity:1"><path
             style="fill:#476c89;fill-opacity:1;stroke:#01426a;stroke-width:0.705001;stroke-opacity:1"
             d="M 103.92305,60.000001 V 80 l 17.32051,10.000002 17.32051,-10 V 60.000001 l -17.32051,10.000001 z"
             id="path92" /><path
             style="fill:#476c89;fill-opacity:1;stroke:#01426a;stroke-width:0.705001;stroke-opacity:1"
             d="M 121.24356,49.939006 138.56407,60.000001 121.24356,70.000002 103.92305,60.000001 Z"
             id="path93" /><path
             style="fill:#476c89;fill-opacity:1;stroke:#01426a;stroke-width:0.705001;stroke-opacity:1"
             d="M 121.24356,70.000002 V 90.000001"
             id="path94" /></g><g
           id="g97"
           transform="translate(34.641016,-20.060996)"
           style="fill:#698ea6;fill-opacity:0.972549;stroke:#01426a;stroke-opacity:1"><path
             style="fill:#698ea6;fill-opacity:0.972549;stroke:#01426a;stroke-width:0.705001;stroke-opacity:1"
             d="M 103.92305,60.000001 V 80 l 17.32051,10.000002 17.32051,-10 V 60.000001 l -17.32051,10.000001 z"
             id="path95" /><path
             style="fill:#698ea6;fill-opacity:0.972549;stroke:#01426a;stroke-width:0.705001;stroke-opacity:1"
             d="M 121.24356,49.939006 138.56407,60.000001 121.24356,70.000002 103.92305,60.000001 Z"
             id="path96" /><path
             style="fill:#698ea6;fill-opacity:0.972549;stroke:#01426a;stroke-width:0.705001;stroke-opacity:1"
             d="M 121.24356,70.000002 V 90.000001"
             id="path97" /></g><g
           id="g100"
           transform="translate(17.32051,-10.030498)"
           style="fill:#244c70;fill-opacity:1;stroke:#01426a;stroke-opacity:1"><path
             style="fill:#244c70;fill-opacity:1;stroke:#01426a;stroke-width:0.705001;stroke-opacity:1"
             d="M 103.92305,60.000001 V 80 l 17.32051,10.000002 17.32051,-10 V 60.000001 l -17.32051,10.000001 z"
             id="path98" /><path
             style="fill:#244c70;fill-opacity:1;stroke:#01426a;stroke-width:0.705001;stroke-opacity:1"
             d="M 121.24356,49.939006 138.56407,60.000001 121.24356,70.000002 103.92305,60.000001 Z"
             id="path99" /><path
             style="fill:#244c70;fill-opacity:1;stroke:#01426a;stroke-width:0.705001;stroke-opacity:1"
             d="M 121.24356,70.000002 V 90.000001"
             id="path100" /></g></g></g><g
       id="g46"
       transform="translate(17.320508,9.9999998)"
       style="fill:#9eb6c6;fill-opacity:0.960784;stroke:#01426a;stroke-opacity:1"><path
         style="fill:#9eb6c6;fill-opacity:0.960784;stroke:#01426a;stroke-width:0.705001;stroke-opacity:1"
         d="M 103.92305,60.000001 V 80 l 17.32051,10.000002 17.32051,-10 V 60.000001 l -17.32051,10.000001 z"
         id="path44" /><path
         style="fill:#9eb6c6;fill-opacity:0.960784;stroke:#01426a;stroke-width:0.705001;stroke-opacity:1"
         d="M 121.24356,49.939006 138.56407,60.000001 121.24356,70.000002 103.92305,60.000001 Z"
         id="path45" /><path
         style="fill:#9eb6c6;fill-opacity:0.960784;stroke:#01426a;stroke-width:0.705001;stroke-opacity:1"
         d="M 121.24356,70.000002 V 90.000001"
         id="path46" /></g><g
       id="g28"
       transform="translate(34.641016,20)"
       style="display:inline;fill:#57829a;fill-opacity:0.980392;stroke:#01426a;stroke-opacity:1"><path
         style="fill:#57829a;fill-opacity:0.980392;stroke:#01426a;stroke-width:0.705001;stroke-opacity:1"
         d="M 103.92305,60.000001 V 80 l 17.32051,10.000002 17.32051,-10 V 60.000001 l -17.32051,10.000001 z"
         id="path26" /><path
         style="fill:#57829a;fill-opacity:0.980392;stroke:#01426a;stroke-width:0.705001;stroke-opacity:1"
         d="M 121.24356,49.939006 138.56407,60.000001 121.24356,70.000002 103.92305,60.000001 Z"
         id="path27" /><path
         style="fill:#57829a;fill-opacity:0.980392;stroke:#01426a;stroke-width:0.705001;stroke-opacity:1"
         d="M 121.24356,70.000002 V 90.000001"
         id="path28" /></g><g
       id="g33"
       transform="translate(51.961525,30)"
       style="display:inline;fill:#476c89;fill-opacity:1;stroke:#01426a;stroke-opacity:1"><path
         style="fill:#476c89;fill-opacity:1;stroke:#01426a;stroke-width:0.705001;stroke-opacity:1"
         d="M 103.92305,60.000001 V 80 l 17.32051,10.000002 17.32051,-10 V 60.000001 l -17.32051,10.000001 z"
         id="path31" /><path
         style="fill:#476c89;fill-opacity:1;stroke:#01426a;stroke-width:0.705001;stroke-opacity:1"
         d="M 121.24356,49.939006 138.56407,60.000001 121.24356,70.000002 103.92305,60.000001 Z"
         id="path32" /><path
         style="fill:#476c89;fill-opacity:1;stroke:#01426a;stroke-width:0.705001;stroke-opacity:1"
         d="M 121.24356,70.000002 V 90.000001"
         id="path33" /></g><g
       id="g287"
       style="display:inline;opacity:0.154"><g
         id="g226"
         style="display:inline"><g
           id="g223"
           transform="translate(51.961529,50.365975)"
           style="opacity:1"><g
             id="g216"
             transform="translate(51.961526,-29.939006)"
             style="fill:#476c89;fill-opacity:1;stroke:#01426a;stroke-opacity:1"><path
               style="fill:#476c89;fill-opacity:1;stroke:#01426a;stroke-width:0.705001;stroke-opacity:1"
               d="M 103.92305,60.000001 V 80 l 17.32051,10.000002 17.32051,-10 V 60.000001 l -17.32051,10.000001 z"
               id="path214" /><path
               style="fill:#476c89;fill-opacity:1;stroke:#01426a;stroke-width:0.705001;stroke-opacity:1"
               d="M 121.24356,49.939006 138.56407,60.000001 121.24356,70.000002 103.92305,60.000001 Z"
               id="path215" /><path
               style="fill:#476c89;fill-opacity:1;stroke:#01426a;stroke-width:0.705001;stroke-opacity:1"
               d="M 121.24356,70.000002 V 90.000001"
               id="path216" /></g><g
             id="g219"
             transform="translate(34.641016,-20.060996)"
             style="fill:#698ea6;fill-opacity:0.972549;stroke:#01426a;stroke-opacity:1"><path
               style="fill:#698ea6;fill-opacity:0.972549;stroke:#01426a;stroke-width:0.705001;stroke-opacity:1"
               d="M 103.92305,60.000001 V 80 l 17.32051,10.000002 17.32051,-10 V 60.000001 l -17.32051,10.000001 z"
               id="path217" /><path
               style="fill:#698ea6;fill-opacity:0.972549;stroke:#01426a;stroke-width:0.705001;stroke-opacity:1"
               d="M 121.24356,49.939006 138.56407,60.000001 121.24356,70.000002 103.92305,60.000001 Z"
               id="path218" /><path
               style="fill:#698ea6;fill-opacity:0.972549;stroke:#01426a;stroke-width:0.705001;stroke-opacity:1"
               d="M 121.24356,70.000002 V 90.000001"
               id="path219" /></g><g
             id="g222"
             transform="translate(17.32051,-10.030498)"
             style="fill:#244c70;fill-opacity:1;stroke:#01426a;stroke-opacity:1"><path
               style="fill:#244c70;fill-opacity:1;stroke:#01426a;stroke-width:0.705001;stroke-opacity:1"
               d="M 103.92305,60.000001 V 80 l 17.32051,10.000002 17.32051,-10 V 60.000001 l -17.32051,10.000001 z"
               id="path220" /><path
               style="fill:#244c70;fill-opacity:1;stroke:#01426a;stroke-width:0.705001;stroke-opacity:1"
               d="M 121.24356,49.939006 138.56407,60.000001 121.24356,70.000002 103.92305,60.000001 Z"
               id="path221" /><path
               style="fill:#244c70;fill-opacity:1;stroke:#01426a;stroke-width:0.705001;stroke-opacity:1"
               d="M 121.24356,70.000002 V 90.000001"
               id="path222" /></g></g><g
           id="g225"
           transform="translate(51.96153,50.335474)"
           style="opacity:1;fill:#476c89;fill-opacity:1;stroke:#01426a;stroke-opacity:1"><path
             style="fill:#476c89;fill-opacity:1;stroke:#01426a;stroke-width:0.705001;stroke-opacity:1"
             d="M 103.92305,60.000001 V 80 l 17.32051,10.000002 17.32051,-10 V 60.000001 l -17.32051,10.000001 z"
             id="path223" /><path
             style="fill:#476c89;fill-opacity:1;stroke:#01426a;stroke-width:0.705001;stroke-opacity:1"
             d="M 121.24356,49.939006 138.56407,60.000001 121.24356,70.000002 103.92305,60.000001 Z"
             id="path224" /><path
             style="fill:#476c89;fill-opacity:1;stroke:#01426a;stroke-width:0.705001;stroke-opacity:1"
             d="M 121.24356,70.000002 V 90.000001"
             id="path225" /></g></g><g
         id="g238"
         transform="translate(-4.8351233e-6,19.695022)"
         style="display:inline"><g
           id="g235"
           transform="translate(51.961529,50.365975)"
           style="opacity:1"><g
             id="g228"
             transform="translate(51.961526,-29.939006)"
             style="fill:#476c89;fill-opacity:1;stroke:#01426a;stroke-opacity:1"><path
               style="fill:#476c89;fill-opacity:1;stroke:#01426a;stroke-width:0.705001;stroke-opacity:1"
               d="M 103.92305,60.000001 V 80 l 17.32051,10.000002 17.32051,-10 V 60.000001 l -17.32051,10.000001 z"
               id="path226" /><path
               style="fill:#476c89;fill-opacity:1;stroke:#01426a;stroke-width:0.705001;stroke-opacity:1"
               d="M 121.24356,49.939006 138.56407,60.000001 121.24356,70.000002 103.92305,60.000001 Z"
               id="path227" /><path
               style="fill:#476c89;fill-opacity:1;stroke:#01426a;stroke-width:0.705001;stroke-opacity:1"
               d="M 121.24356,70.000002 V 90.000001"
               id="path228" /></g><g
             id="g231"
             transform="translate(34.641016,-20.060996)"
             style="fill:#698ea6;fill-opacity:0.972549;stroke:#01426a;stroke-opacity:1"><path
               style="fill:#698ea6;fill-opacity:0.972549;stroke:#01426a;stroke-width:0.705001;stroke-opacity:1"
               d="M 103.92305,60.000001 V 80 l 17.32051,10.000002 17.32051,-10 V 60.000001 l -17.32051,10.000001 z"
               id="path229" /><path
               style="fill:#698ea6;fill-opacity:0.972549;stroke:#01426a;stroke-width:0.705001;stroke-opacity:1"
               d="M 121.24356,49.939006 138.56407,60.000001 121.24356,70.000002 103.92305,60.000001 Z"
               id="path230" /><path
               style="fill:#698ea6;fill-opacity:0.972549;stroke:#01426a;stroke-width:0.705001;stroke-opacity:1"
               d="M 121.24356,70.000002 V 90.000001"
               id="path231" /></g><g
             id="g234"
             transform="translate(17.32051,-10.030498)"
             style="fill:#244c70;fill-opacity:1;stroke:#01426a;stroke-opacity:1"><path
               style="fill:#244c70;fill-opacity:1;stroke:#01426a;stroke-width:0.705001;stroke-opacity:1"
               d="M 103.92305,60.000001 V 80 l 17.32051,10.000002 17.32051,-10 V 60.000001 l -17.32051,10.000001 z"
               id="path232" /><path
               style="fill:#244c70;fill-opacity:1;stroke:#01426a;stroke-width:0.705001;stroke-opacity:1"
               d="M 121.24356,49.939006 138.56407,60.000001 121.24356,70.000002 103.92305,60.000001 Z"
               id="path233" /><path
               style="fill:#244c70;fill-opacity:1;stroke:#01426a;stroke-width:0.705001;stroke-opacity:1"
               d="M 121.24356,70.000002 V 90.000001"
               id="path234" /></g></g><g
           id="g237"
           transform="translate(51.96153,50.335474)"
           style="opacity:1;fill:#476c89;fill-opacity:1;stroke:#01426a;stroke-opacity:1"><path
             style="fill:#476c89;fill-opacity:1;stroke:#01426a;stroke-width:0.705001;stroke-opacity:1"
             d="M 103.92305,60.000001 V 80 l 17.32051,10.000002 17.32051,-10 V 60.000001 l -17.32051,10.000001 z"
             id="path235" /><path
             style="fill:#476c89;fill-opacity:1;stroke:#01426a;stroke-width:0.705001;stroke-opacity:1"
             d="M 121.24356,49.939006 138.56407,60.000001 121.24356,70.000002 103.92305,60.000001 Z"
             id="path236" /><path
             style="fill:#476c89;fill-opacity:1;stroke:#01426a;stroke-width:0.705001;stroke-opacity:1"
             d="M 121.24356,70.000002 V 90.000001"
             id="path237" /></g></g><g
         id="g250"
         transform="translate(-4.8351233e-6,39.695022)"
         style="display:inline"><g
           id="g247"
           transform="translate(51.961529,50.365975)"
           style="opacity:1"><g
             id="g240"
             transform="translate(51.961526,-29.939006)"
             style="fill:#476c89;fill-opacity:1;stroke:#01426a;stroke-opacity:1"><path
               style="fill:#476c89;fill-opacity:1;stroke:#01426a;stroke-width:0.705001;stroke-opacity:1"
               d="M 103.92305,60.000001 V 80 l 17.32051,10.000002 17.32051,-10 V 60.000001 l -17.32051,10.000001 z"
               id="path238" /><path
               style="fill:#476c89;fill-opacity:1;stroke:#01426a;stroke-width:0.705001;stroke-opacity:1"
               d="M 121.24356,49.939006 138.56407,60.000001 121.24356,70.000002 103.92305,60.000001 Z"
               id="path239" /><path
               style="fill:#476c89;fill-opacity:1;stroke:#01426a;stroke-width:0.705001;stroke-opacity:1"
               d="M 121.24356,70.000002 V 90.000001"
               id="path240" /></g><g
             id="g243"
             transform="translate(34.641016,-20.060996)"
             style="fill:#698ea6;fill-opacity:0.972549;stroke:#01426a;stroke-opacity:1"><path
               style="fill:#698ea6;fill-opacity:0.972549;stroke:#01426a;stroke-width:0.705001;stroke-opacity:1"
               d="M 103.92305,60.000001 V 80 l 17.32051,10.000002 17.32051,-10 V 60.000001 l -17.32051,10.000001 z"
               id="path241" /><path
               style="fill:#698ea6;fill-opacity:0.972549;stroke:#01426a;stroke-width:0.705001;stroke-opacity:1"
               d="M 121.24356,49.939006 138.56407,60.000001 121.24356,70.000002 103.92305,60.000001 Z"
               id="path242" /><path
               style="fill:#698ea6;fill-opacity:0.972549;stroke:#01426a;stroke-width:0.705001;stroke-opacity:1"
               d="M 121.24356,70.000002 V 90.000001"
               id="path243" /></g><g
             id="g246"
             transform="translate(17.32051,-10.030498)"
             style="fill:#244c70;fill-opacity:1;stroke:#01426a;stroke-opacity:1"><path
               style="fill:#244c70;fill-opacity:1;stroke:#01426a;stroke-width:0.705001;stroke-opacity:1"
               d="M 103.92305,60.000001 V 80 l 17.32051,10.000002 17.32051,-10 V 60.000001 l -17.32051,10.000001 z"
               id="path244" /><path
               style="fill:#244c70;fill-opacity:1;stroke:#01426a;stroke-width:0.705001;stroke-opacity:1"
               d="M 121.24356,49.939006 138.56407,60.000001 121.24356,70.000002 103.92305,60.000001 Z"
               id="path245" /><path
               style="fill:#244c70;fill-opacity:1;stroke:#01426a;stroke-width:0.705001;stroke-opacity:1"
               d="M 121.24356,70.000002 V 90.000001"
               id="path246" /></g></g><g
           id="g249"
           transform="translate(51.96153,50.335474)"
           style="opacity:1;fill:#476c89;fill-opacity:1;stroke:#01426a;stroke-opacity:1"><path
             style="fill:#476c89;fill-opacity:1;stroke:#01426a;stroke-width:0.705001;stroke-opacity:1"
             d="M 103.92305,60.000001 V 80 l 17.32051,10.000002 17.32051,-10 V 60.000001 l -17.32051,10.000001 z"
             id="path247" /><path
             style="fill:#476c89;fill-opacity:1;stroke:#01426a;stroke-width:0.705001;stroke-opacity:1"
             d="M 121.24356,49.939006 138.56407,60.000001 121.24356,70.000002 103.92305,60.000001 Z"
             id="path248" /><path
             style="fill:#476c89;fill-opacity:1;stroke:#01426a;stroke-width:0.705001;stroke-opacity:1"
             d="M 121.24356,70.000002 V 90.000001"
             id="path249" /></g></g></g><g
       id="g288"
       style="display:inline;opacity:0.148"
       transform="translate(0,0.0304965)"><g
         id="g256"
         style="display:inline;opacity:1"><g
           id="g252"
           transform="translate(17.320505,29.999999)"
           style="fill:#9eb6c6;fill-opacity:0.960784;stroke:#01426a;stroke-opacity:1"><path
             style="fill:#9eb6c6;fill-opacity:0.960784;stroke:#01426a;stroke-width:0.705001;stroke-opacity:1"
             d="M 103.92305,60.000001 V 80 l 17.32051,10.000002 17.32051,-10 V 60.000001 l -17.32051,10.000001 z"
             id="path250" /><path
             style="fill:#9eb6c6;fill-opacity:0.960784;stroke:#01426a;stroke-width:0.705001;stroke-opacity:1"
             d="M 121.24356,49.939006 138.56407,60.000001 121.24356,70.000002 103.92305,60.000001 Z"
             id="path251" /><path
             style="fill:#9eb6c6;fill-opacity:0.960784;stroke:#01426a;stroke-width:0.705001;stroke-opacity:1"
             d="M 121.24356,70.000002 V 90.000001"
             id="path252" /></g><g
           id="g255"
           transform="translate(34.641013,39.999999)"
           style="fill:#57829a;fill-opacity:0.980392;stroke:#01426a;stroke-opacity:1"><path
             style="fill:#57829a;fill-opacity:0.980392;stroke:#01426a;stroke-width:0.705001;stroke-opacity:1"
             d="M 103.92305,60.000001 V 80 l 17.32051,10.000002 17.32051,-10 V 60.000001 l -17.32051,10.000001 z"
             id="path253" /><path
             style="fill:#57829a;fill-opacity:0.980392;stroke:#01426a;stroke-width:0.705001;stroke-opacity:1"
             d="M 121.24356,49.939006 138.56407,60.000001 121.24356,70.000002 103.92305,60.000001 Z"
             id="path254" /><path
             style="fill:#57829a;fill-opacity:0.980392;stroke:#01426a;stroke-width:0.705001;stroke-opacity:1"
             d="M 121.24356,70.000002 V 90.000001"
             id="path255" /></g></g><g
         id="g262"
         style="display:inline;opacity:1"
         transform="translate(5e-6,20.000003)"><g
           id="g258"
           transform="translate(17.320505,29.999999)"
           style="fill:#9eb6c6;fill-opacity:0.960784;stroke:#01426a;stroke-opacity:1"><path
             style="fill:#9eb6c6;fill-opacity:0.960784;stroke:#01426a;stroke-width:0.705001;stroke-opacity:1"
             d="M 103.92305,60.000001 V 80 l 17.32051,10.000002 17.32051,-10 V 60.000001 l -17.32051,10.000001 z"
             id="path256" /><path
             style="fill:#9eb6c6;fill-opacity:0.960784;stroke:#01426a;stroke-width:0.705001;stroke-opacity:1"
             d="M 121.24356,49.939006 138.56407,60.000001 121.24356,70.000002 103.92305,60.000001 Z"
             id="path257" /><path
             style="fill:#9eb6c6;fill-opacity:0.960784;stroke:#01426a;stroke-width:0.705001;stroke-opacity:1"
             d="M 121.24356,70.000002 V 90.000001"
             id="path258" /></g><g
           id="g261"
           transform="translate(34.641013,39.999999)"
           style="fill:#57829a;fill-opacity:0.980392;stroke:#01426a;stroke-opacity:1"><path
             style="fill:#57829a;fill-opacity:0.980392;stroke:#01426a;stroke-width:0.705001;stroke-opacity:1"
             d="M 103.92305,60.000001 V 80 l 17.32051,10.000002 17.32051,-10 V 60.000001 l -17.32051,10.000001 z"
             id="path259" /><path
             style="fill:#57829a;fill-opacity:0.980392;stroke:#01426a;stroke-width:0.705001;stroke-opacity:1"
             d="M 121.24356,49.939006 138.56407,60.000001 121.24356,70.000002 103.92305,60.000001 Z"
             id="path260" /><path
             style="fill:#57829a;fill-opacity:0.980392;stroke:#01426a;stroke-width:0.705001;stroke-opacity:1"
             d="M 121.24356,70.000002 V 90.000001"
             id="path261" /></g></g><g
         id="g268"
         style="display:inline;opacity:1"
         transform="translate(-0.35088893,39.848134)"><g
           id="g264"
           transform="translate(17.320505,29.999999)"
           style="fill:#9eb6c6;fill-opacity:0.960784;stroke:#01426a;stroke-opacity:1"><path
             style="fill:#9eb6c6;fill-opacity:0.960784;stroke:#01426a;stroke-width:0.705001;stroke-opacity:1"
             d="M 103.92305,60.000001 V 80 l 17.32051,10.000002 17.32051,-10 V 60.000001 l -17.32051,10.000001 z"
             id="path262" /><path
             style="fill:#9eb6c6;fill-opacity:0.960784;stroke:#01426a;stroke-width:0.705001;stroke-opacity:1"
             d="M 121.24356,49.939006 138.56407,60.000001 121.24356,70.000002 103.92305,60.000001 Z"
             id="path263" /><path
             style="fill:#9eb6c6;fill-opacity:0.960784;stroke:#01426a;stroke-width:0.705001;stroke-opacity:1"
             d="M 121.24356,70.000002 V 90.000001"
             id="path264" /></g><g
           id="g267"
           transform="translate(34.641013,39.999999)"
           style="fill:#57829a;fill-opacity:0.980392;stroke:#01426a;stroke-opacity:1"><path
             style="fill:#57829a;fill-opacity:0.980392;stroke:#01426a;stroke-width:0.705001;stroke-opacity:1"
             d="M 103.92305,60.000001 V 80 l 17.32051,10.000002 17.32051,-10 V 60.000001 l -17.32051,10.000001 z"
             id="path265" /><path
             style="fill:#57829a;fill-opacity:0.980392;stroke:#01426a;stroke-width:0.705001;stroke-opacity:1"
             d="M 121.24356,49.939006 138.56407,60.000001 121.24356,70.000002 103.92305,60.000001 Z"
             id="path266" /><path
             style="fill:#57829a;fill-opacity:0.980392;stroke:#01426a;stroke-width:0.705001;stroke-opacity:1"
             d="M 121.24356,70.000002 V 90.000001"
             id="path267" /></g></g></g><path
       style="display:inline;opacity:1;fill:#476c89;fill-opacity:1;stroke:#01426a;stroke-width:0.705001;stroke-opacity:1"
       d="M 173.20508,100 242.48712,60.000001"
       id="path268" /><path
       style="opacity:1;fill:none;fill-opacity:1;stroke:#01426a;stroke-width:0.705001;stroke-opacity:1"
       d="m 173.20509,20.243981 69.28204,40.000001 v 80.121988 l -69.28204,39.87801 -69.28203,-40"
       id="path269" /><path
       style="opacity:1;fill:none;fill-opacity:1;stroke:#01426a;stroke-width:0.705001;stroke-opacity:1"
       d="M 173.20509,100.33548 173.20508,180"
       id="path270" /><path
       style="font-weight:bold;font-size:106.667px;font-family:'Devanagari Sangam MN';-inkscape-font-specification:'Devanagari Sangam MN Bold';text-align:end;white-space:pre;fill:#244c70;stroke-width:2.66457"
       d="m 954.38227,5.5306028 q 0,4.7916812 -2.50001,9.0104452 -2.50001,4.166679 -7.5521,7.239606 2.39584,0.833335 4.11459,2.39584 1.71876,1.562505 2.81251,3.541678 1.09375,1.927089 1.61459,4.16668 0.52083,2.187507 0.52083,4.375013 v 10.468783 q 0,2.031256 0.93751,4.687515 0.98958,2.656258 2.65626,5.468767 H 943.5489 q -0.78125,-1.250004 -1.25,-2.604175 -0.46875,-1.354171 -0.72917,-2.656258 -0.26042,-1.302088 -0.36458,-2.447925 -0.0521,-1.145836 -0.0521,-2.031256 V 36.103615 q 0,-1.614588 -0.57292,-3.229177 -0.52083,-1.614588 -1.77083,-2.864592 -1.19793,-1.302087 -3.1771,-2.08334 -1.92709,-0.833336 -4.7396,-0.833336 h -18.54172 v 29.79176 h -12.29171 v -72.656477 h 30.83343 q 5.62502,0 10.00003,1.875006 4.37502,1.875006 7.34378,4.8958484 3.02084,2.9687593 4.58335,6.822938 1.5625,3.8020952 1.5625,7.7083574 z M 912.35089,16.780638 h 18.54172 q 2.23959,0 4.21877,-0.781252 2.03125,-0.833336 3.54167,-2.239591 1.56251,-1.458338 2.44793,-3.489594 0.88542,-2.0312564 0.88542,-4.4791807 0,-2.3958408 -0.83334,-4.4270972 -0.83333,-2.08333981 -2.34375,-3.5416777 -1.45834,-1.5104214 -3.4896,-2.3437573 -2.03126,-0.8854195 -4.4271,-0.8854195 h -18.54172 z m 123.02121,3.593761 q 0,8.437527 -2.2396,15.520882 -2.2396,7.031272 -6.5625,12.135455 -4.2709,5.052099 -10.5209,7.864607 -6.25,2.812509 -14.3229,2.812509 -8.07298,0 -14.32299,-2.812509 -6.19794,-2.864592 -10.52087,-7.916691 -4.27085,-5.104183 -6.51044,-12.135455 -2.1875,-7.083355 -2.1875,-15.520881 0,-8.437527 2.1875,-15.4167151 2.23959,-6.9791885 6.51044,-11.9792041 4.32293,-5.0000158 10.52087,-7.7604408 6.25001,-2.760425 14.32299,-2.760425 8.0729,0 14.3229,2.812508 6.25,2.760426 10.5209,7.7604413 4.3229,5.0000156 6.5625,11.9792041 2.2396,6.9791886 2.2396,15.4167146 z m -12.2917,-0.05208 q 0,-6.614604 -1.6667,-11.7708704 -1.6666,-5.1562661 -4.5833,-8.64586036 -2.8646,-3.54167774 -6.7709,-5.36460004 -3.8542,-1.8750059 -8.3333,-1.8750059 -4.5313,0 -8.43756,1.8750059 -3.85418,1.8229223 -6.71877,5.36460004 -2.81251,3.48959426 -4.47918,8.64586036 -1.61459,5.1562664 -1.61459,11.7708704 0,6.614604 1.61459,11.822953 1.66667,5.20835 4.47918,8.854195 2.86459,3.593761 6.71877,5.52085 3.90626,1.875006 8.43756,1.875006 4.4791,0 8.3333,-1.875006 3.9063,-1.927089 6.7709,-5.52085 2.9167,-3.645845 4.5833,-8.854195 1.6667,-5.208349 1.6667,-11.822953 z m 40.7293,-36.093863 20.3126,56.927261 20.7292,-56.927261 h 13.8542 V 56.88493 H 1106.414 V 8.9681135 L 1089.6952,56.88493 h -10.4167 L 1062.2472,8.7597796 V 56.88493 h -12.3438 v -72.656477 z"
       id="text276"
       transform="matrix(0.26458333,-0.15274493,0,0.26458333,-57.689439,277.83513)"
       aria-label="ROM" /><path
       style="opacity:0.2;fill:none;fill-opacity:1;stroke:#839fb7;stroke-width:0.705001;stroke-opacity:1"
       d="m 121.24356,110.0305 17.3205,-10"
       id="path291" /></g><g
     id="layer2"><path
       style="display:inline;opacity:1;fill:none;fill-opacity:1;stroke:#01426a;stroke-width:0.705001;stroke-opacity:1"
       d="m 138.56406,100.0305 -17.3205,10"
       id="path290" /><path
       style="display:inline;opacity:1;fill:none;fill-opacity:1;stroke:#839fb7;stroke-width:0.705001;stroke-opacity:1"
       d="m 121.24356,110.0305 17.3205,-10 10e-6,39.9695"
       id="path292" /><path
       style="display:inline;opacity:1;fill:none;fill-opacity:1;stroke:#88a1b3;stroke-width:0.705001;stroke-opacity:1"
       d="m 138.56407,120 -17.32051,10"
       id="path293" /><path
       style="font-weight:bold;font-size:100px;font-family:Helvetica;-inkscape-font-specification:'Helvetica Bold';text-align:end;white-space:pre;fill:#244c70;stroke-width:2.66457"
       d="M 1004.8809,56.233741 H 989.8418 L 960.44727,5.1106937 V 56.233741 h -14.01368 v -71.972657 h 15.77149 l 28.66211,50.244141 v -50.244141 h 14.01371 z m 58.4472,-15.625 q -0.5371,4.736328 -4.9316,9.61914 -6.836,7.763672 -19.1406,7.763672 -10.1563,0 -17.92,-6.542969 -7.7636,-6.542968 -7.7636,-21.289062 0,-13.81836 6.9824,-21.1914065 7.0312,-7.3730468 18.2129,-7.3730468 6.6406,0 11.9629,2.4902343 5.3222,2.4902344 8.789,7.861328 3.125,4.736328 4.0528,10.986328 0.5371,3.66211 0.4394,10.546875 h -36.4258 q 0.293,8.007813 5.0293,11.230469 2.8809,2.001953 6.9336,2.001953 4.2969,0 6.9825,-2.441406 1.4648,-1.318359 2.5878,-3.662109 z m -13.7695,-16.308594 q -0.3418,-5.517578 -3.3691,-8.34961 -2.9786,-2.880859 -7.4219,-2.880859 -4.834,0 -7.5196,3.027344 -2.6367,3.027344 -3.3203,8.203125 z m 57.959,24.414062 q -0.1953,0.244141 -0.9766,1.464844 -0.7812,1.220703 -1.8555,2.148438 -3.2714,2.929687 -6.3476,4.003906 -3.0274,1.074219 -7.1289,1.074219 -11.8164,0 -15.918,-8.496094 -2.2949,-4.6875 -2.2949,-13.81836 V 3.0110843 h 14.2578 V 35.091162 q 0,4.541016 1.0742,6.835938 1.9043,4.052734 7.4707,4.052734 7.1289,0 9.7657,-5.761718 1.3671,-3.125 1.3671,-8.251954 V 3.0110843 h 14.1114 V 56.233741 h -13.5254 z"
       id="text277"
       transform="matrix(0.26458333,0.14637685,0,0.26458333,-127.50337,-22.47806)"
       aria-label="Neu" /><path
       style="display:inline;opacity:1;fill:none;fill-opacity:1;stroke:#88a1b3;stroke-width:0.705001;stroke-opacity:1"
       d="m 139.09282,139.69473 -17.32051,10"
       id="path294" /><path
       style="opacity:1;fill:none;fill-opacity:1;stroke:#01426a;stroke-width:0.705001;stroke-opacity:1"
       d="m 134.97358,97.927034 6.85095,3.985896"
       id="path295" /><g
       id="g1"
       style="display:inline"><path
         style="font-size:40px;font-family:Helvetica;-inkscape-font-specification:Helvetica;text-align:end;white-space:pre;fill:#244c70;stroke-width:2.66457"
         d="m 2451.9987,742.02785 h 3.9258 v 28.6914 h -3.9258 z m 9.7656,7.77343 h 3.3399 v 2.96875 q 1.4843,-1.83593 3.1445,-2.63672 1.6602,-0.80078 3.6914,-0.80078 4.4531,0 6.0156,3.10547 0.8594,1.69922 0.8594,4.86328 v 13.41797 h -3.5742 v -13.18359 q 0,-1.91406 -0.5664,-3.08594 -0.9375,-1.95312 -3.3985,-1.95312 -1.25,0 -2.0507,0.2539 -1.4453,0.42969 -2.5391,1.71875 -0.8789,1.03516 -1.1523,2.14844 -0.2539,1.09375 -0.2539,3.14453 v 10.95703 h -3.5157 z m 8.2617,-0.50781 z m 14.6875,-5.33203 h 3.5547 v 5.83984 h 3.3399 v 2.8711 h -3.3399 v 13.65234 q 0,1.09375 0.7422,1.46484 0.4102,0.21485 1.3672,0.21485 0.2539,0 0.5469,0 0.293,-0.0195 0.6836,-0.0586 v 2.77344 q -0.6055,0.17578 -1.2696,0.25391 -0.6445,0.0781 -1.4062,0.0781 -2.4609,0 -3.3398,-1.25 -0.879,-1.26953 -0.879,-3.28125 v -13.84765 h -2.832 v -2.8711 h 2.832 z m 19.1211,5.37109 q 2.2266,0 4.3164,1.05469 2.0899,1.03516 3.1836,2.69531 1.0547,1.58203 1.4063,3.69141 0.3125,1.44531 0.3125,4.60937 h -15.332 q 0.098,3.1836 1.5039,5.11719 1.4062,1.91406 4.3554,1.91406 2.7539,0 4.3946,-1.8164 0.9375,-1.05469 1.3281,-2.44141 h 3.457 q -0.1367,1.15235 -0.9179,2.57813 -0.7618,1.40625 -1.7188,2.30468 -1.6016,1.5625 -3.9648,2.10938 -1.2696,0.3125 -2.8711,0.3125 -3.9063,0 -6.6211,-2.83203 -2.7149,-2.85156 -2.7149,-7.96875 0,-5.03906 2.7344,-8.1836 2.7344,-3.14453 7.1484,-3.14453 z m 5.6055,9.25782 q -0.2148,-2.28516 -0.9961,-3.65235 -1.4453,-2.53906 -4.8242,-2.53906 -2.4219,0 -4.0625,1.75781 -1.6406,1.73828 -1.7383,4.4336 z m -5.9375,-9.29688 z m 13.9649,0.50781 h 3.3398 v 3.61328 q 0.4102,-1.05468 2.0117,-2.55859 1.6016,-1.52344 3.6914,-1.52344 0.098,0 0.3321,0.0195 0.2343,0.0195 0.8007,0.0781 v 3.71094 q -0.3125,-0.0586 -0.5859,-0.0781 -0.2539,-0.0195 -0.5664,-0.0195 -2.6563,0 -4.082,1.71875 -1.4258,1.69922 -1.4258,3.92578 v 12.03125 h -3.5156 z m 22.0507,18.55469 q 2.461,0 4.0821,-2.05078 1.6406,-2.07031 1.6406,-6.17188 0,-2.5 -0.7227,-4.29687 -1.3672,-3.45703 -5,-3.45703 -3.6523,0 -5,3.65234 -0.7226,1.95313 -0.7226,4.96094 0,2.42187 0.7226,4.12109 1.3672,3.24219 5,3.24219 z m -9.1015,-18.45703 h 3.4179 v 2.77344 q 1.0547,-1.42578 2.3047,-2.20703 1.7774,-1.17188 4.1797,-1.17188 3.5547,0 6.0352,2.73438 2.4804,2.71484 2.4804,7.77343 0,6.83594 -3.5742,9.76563 -2.2656,1.85547 -5.2734,1.85547 -2.3633,0 -3.9649,-1.03516 -0.9375,-0.58594 -2.0898,-2.01172 v 10.6836 h -3.5156 z m 22.6172,-0.0977 h 3.3398 v 3.61328 q 0.4102,-1.05468 2.0117,-2.55859 1.6016,-1.52344 3.6914,-1.52344 0.098,0 0.3321,0.0195 0.2343,0.0195 0.8007,0.0781 v 3.71094 q -0.3125,-0.0586 -0.5859,-0.0781 -0.2539,-0.0195 -0.5664,-0.0195 -2.6563,0 -4.082,1.71875 -1.4258,1.69922 -1.4258,3.92578 v 12.03125 h -3.5156 z m 21.9336,-0.46875 q 2.2265,0 4.3164,1.05469 2.0898,1.03516 3.1836,2.69531 1.0546,1.58203 1.4062,3.69141 0.3125,1.44531 0.3125,4.60937 h -15.332 q 0.098,3.1836 1.5039,5.11719 1.4062,1.91406 4.3554,1.91406 2.754,0 4.3946,-1.8164 0.9375,-1.05469 1.3281,-2.44141 h 3.457 q -0.1367,1.15235 -0.9179,2.57813 -0.7618,1.40625 -1.7188,2.30468 -1.6015,1.5625 -3.9648,2.10938 -1.2696,0.3125 -2.8711,0.3125 -3.9063,0 -6.6211,-2.83203 -2.7149,-2.85156 -2.7149,-7.96875 0,-5.03906 2.7344,-8.1836 2.7344,-3.14453 7.1485,-3.14453 z m 5.6054,9.25782 q -0.2148,-2.28516 -0.9961,-3.65235 -1.4453,-2.53906 -4.8242,-2.53906 -2.4219,0 -4.0625,1.75781 -1.6406,1.73828 -1.7383,4.4336 z m -5.9375,-9.29688 z m 14.5703,-5.33203 h 3.5547 v 5.83984 h 3.3399 v 2.8711 h -3.3399 v 13.65234 q 0,1.09375 0.7422,1.46484 0.4102,0.21485 1.3672,0.21485 0.2539,0 0.5469,0 0.2929,-0.0195 0.6836,-0.0586 v 2.77344 q -0.6055,0.17578 -1.2696,0.25391 -0.6445,0.0781 -1.4062,0.0781 -2.461,0 -3.3399,-1.25 -0.8789,-1.26953 -0.8789,-3.28125 v -13.84765 h -2.832 v -2.8711 h 2.832 z m 13.1055,21.19141 q 0,1.52343 1.1133,2.40234 1.1133,0.87891 2.6367,0.87891 1.8555,0 3.5938,-0.85938 2.9296,-1.42578 2.9296,-4.66797 v -2.83203 q -0.6445,0.41016 -1.6601,0.68359 -1.0156,0.27344 -1.9922,0.39063 l -2.1289,0.27344 q -1.9141,0.2539 -2.8711,0.80078 -1.6211,0.91797 -1.6211,2.92969 z m 8.5156,-7.10938 q 1.211,-0.15625 1.6211,-1.01562 0.2344,-0.46875 0.2344,-1.34766 0,-1.79688 -1.2891,-2.59766 -1.2695,-0.82031 -3.6523,-0.82031 -2.7539,0 -3.9063,1.48438 -0.6445,0.82031 -0.8398,2.4414 h -3.2813 q 0.098,-3.86719 2.5,-5.37109 2.4219,-1.52344 5.6055,-1.52344 3.6914,0 5.9961,1.40625 2.2852,1.40625 2.2852,4.375 v 12.05078 q 0,0.54688 0.2148,0.87891 0.2344,0.33203 0.957,0.33203 0.2344,0 0.5274,-0.0195 0.293,-0.0391 0.625,-0.0977 v 2.59766 q -0.8203,0.23437 -1.25,0.29297 -0.4297,0.0586 -1.1719,0.0586 -1.8164,0 -2.6367,-1.28906 -0.4297,-0.6836 -0.6055,-1.9336 -1.0742,1.40625 -3.0859,2.44141 -2.0117,1.03516 -4.4336,1.03516 -2.9102,0 -4.7656,-1.75782 -1.836,-1.77734 -1.836,-4.43359 0,-2.91016 1.8164,-4.51172 1.8164,-1.60156 4.7657,-1.97265 z m -2.9101,-8.75 z m 13.6718,-7.36328 h 3.418 v 10.41016 q 1.1524,-1.50391 2.7539,-2.28516 1.6016,-0.80078 3.4766,-0.80078 3.9062,0 6.3281,2.69531 2.4414,2.67578 2.4414,7.91016 0,4.96093 -2.4023,8.24218 -2.4024,3.28125 -6.6602,3.28125 -2.3828,0 -4.0234,-1.15234 -0.9766,-0.68359 -2.0899,-2.1875 v 2.67578 h -3.2422 z m 9.1407,26.34766 q 2.8515,0 4.2578,-2.26563 1.4258,-2.26562 1.4258,-5.97656 0,-3.30078 -1.4258,-5.46875 -1.4063,-2.16797 -4.1602,-2.16797 -2.4023,0 -4.2187,1.77734 -1.7969,1.77735 -1.7969,5.85938 0,2.94922 0.7422,4.78515 1.3867,3.45704 5.1758,3.45704 z m 13.4765,-26.25 h 3.5157 v 28.6914 h -3.5157 z m 17.5,7.30468 q 2.2266,0 4.3164,1.05469 2.0899,1.03516 3.1836,2.69531 1.0547,1.58203 1.4063,3.69141 0.3125,1.44531 0.3125,4.60937 h -15.332 q 0.098,3.1836 1.5039,5.11719 1.4062,1.91406 4.3554,1.91406 2.7539,0 4.3946,-1.8164 0.9375,-1.05469 1.3281,-2.44141 h 3.457 q -0.1367,1.15235 -0.918,2.57813 -0.7617,1.40625 -1.7187,2.30468 -1.6016,1.5625 -3.9648,2.10938 -1.2696,0.3125 -2.8711,0.3125 -3.9063,0 -6.6211,-2.83203 -2.7149,-2.85156 -2.7149,-7.96875 0,-5.03906 2.7344,-8.1836 2.7344,-3.14453 7.1484,-3.14453 z m 5.6055,9.25782 q -0.2148,-2.28516 -0.9961,-3.65235 -1.4453,-2.53906 -4.8242,-2.53906 -2.4219,0 -4.0625,1.75781 -1.6406,1.73828 -1.7383,4.4336 z m -5.9375,-9.29688 z"
         id="text288"
         transform="matrix(0.26458333,0.15249589,0,0.26458333,-539.71912,-423.55438)"
         aria-label="Interpretable  " /><g
         id="text289"
         style="font-size:40px;font-family:'Times New Roman';-inkscape-font-specification:'Times New Roman, ';text-align:end;white-space:pre;fill:#244c70;stroke-width:2.66457"
         transform="matrix(0.26458333,-0.15421789,0,0.26458333,-466.63038,360.9788)"
         aria-label="Neural ROM   "><path
           style="font-family:Helvetica;-inkscape-font-specification:Helvetica"
           d="m 2446.9648,739.40053 h 4.5899 l 14.4922,23.24218 v -23.24218 h 3.6914 v 28.6914 h -4.3555 l -14.707,-23.22265 v 23.22265 h -3.711 z m 11.1329,0 z m 25.9961,7.30468 q 2.2265,0 4.3164,1.05469 2.0898,1.03516 3.1836,2.69531 1.0546,1.58204 1.4062,3.69141 0.3125,1.44531 0.3125,4.60938 h -15.332 q 0.098,3.18359 1.5039,5.11718 1.4062,1.91407 4.3554,1.91407 2.754,0 4.3946,-1.81641 0.9375,-1.05469 1.3281,-2.44141 h 3.457 q -0.1367,1.15235 -0.9179,2.57813 -0.7618,1.40625 -1.7188,2.30469 -1.6015,1.5625 -3.9648,2.10937 -1.2696,0.3125 -2.8711,0.3125 -3.9063,0 -6.6211,-2.83203 -2.7149,-2.85156 -2.7149,-7.96875 0,-5.03906 2.7344,-8.18359 2.7344,-3.14454 7.1485,-3.14454 z m 5.6054,9.25782 q -0.2148,-2.28516 -0.9961,-3.65235 -1.4453,-2.53906 -4.8242,-2.53906 -2.4219,0 -4.0625,1.75781 -1.6406,1.73828 -1.7383,4.4336 z m -5.9375,-9.29688 z m 17.3828,0.50781 v 13.88672 q 0,1.60157 0.5078,2.61719 0.9375,1.875 3.4961,1.875 3.6719,0 5,-3.28125 0.7227,-1.75781 0.7227,-4.82422 v -10.27344 h 3.5156 v 20.91797 h -3.3203 l 0.039,-3.08593 q -0.6836,1.1914 -1.6992,2.01171 -2.0118,1.64063 -4.8829,1.64063 -4.4726,0 -6.0937,-2.98828 -0.8789,-1.60156 -0.8789,-4.27735 v -14.21875 z m 4.8243,-0.50781 z m 14.0039,0.50781 h 3.3398 v 3.61329 q 0.4102,-1.05469 2.0117,-2.5586 1.6016,-1.52344 3.6914,-1.52344 0.098,0 0.3321,0.0195 0.2343,0.0195 0.8007,0.0781 v 3.71094 q -0.3125,-0.0586 -0.5859,-0.0781 -0.2539,-0.0195 -0.5664,-0.0195 -2.6563,0 -4.082,1.71875 -1.4258,1.69922 -1.4258,3.92578 v 12.03125 h -3.5156 z m 15.9179,15.35157 q 0,1.52343 1.1133,2.40234 1.1133,0.87891 2.6367,0.87891 1.8555,0 3.5938,-0.85938 2.9297,-1.42578 2.9297,-4.66797 v -2.83203 q -0.6446,0.41016 -1.6602,0.6836 -1.0156,0.27343 -1.9922,0.39062 l -2.1289,0.27344 q -1.914,0.2539 -2.8711,0.80078 -1.6211,0.91797 -1.6211,2.92969 z m 8.5157,-7.10938 q 1.2109,-0.15625 1.621,-1.01562 0.2344,-0.46875 0.2344,-1.34766 0,-1.79687 -1.289,-2.59766 -1.2696,-0.82031 -3.6524,-0.82031 -2.7539,0 -3.9062,1.48438 -0.6446,0.82031 -0.8399,2.4414 h -3.2812 q 0.098,-3.86718 2.5,-5.37109 2.4218,-1.52344 5.6054,-1.52344 3.6914,0 5.9961,1.40625 2.2852,1.40625 2.2852,4.375 v 12.05078 q 0,0.54688 0.2148,0.87891 0.2344,0.33203 0.9571,0.33203 0.2343,0 0.5273,-0.0195 0.293,-0.0391 0.625,-0.0977 v 2.59766 q -0.8203,0.23437 -1.25,0.29297 -0.4297,0.0586 -1.1719,0.0586 -1.8164,0 -2.6367,-1.28906 -0.4297,-0.68359 -0.6055,-1.93359 -1.0742,1.40625 -3.0859,2.4414 -2.0117,1.03516 -4.4336,1.03516 -2.9101,0 -4.7656,-1.75781 -1.8359,-1.77735 -1.8359,-4.4336 0,-2.91015 1.8164,-4.51172 1.8164,-1.60156 4.7656,-1.97265 z m -2.9102,-8.75 z m 14.043,-7.26562 h 3.5156 v 28.6914 h -3.5156 z"
           id="path1" /><path
           style="font-family:'Devanagari Sangam MN';-inkscape-font-specification:'Devanagari Sangam MN'"
           d="m 2596.1445,748.59975 q 0,1.01562 -0.2539,1.99218 -0.2343,0.97657 -0.7226,1.85547 -0.4883,0.85938 -1.211,1.58203 -0.7031,0.72266 -1.6601,1.25 1.0742,0.27344 1.7383,0.83985 0.6836,0.54687 1.0546,1.28906 0.3907,0.72266 0.5274,1.60156 0.1562,0.85938 0.1562,1.75781 v 4.10157 q 0,0.8789 0.2344,1.71875 0.2539,0.82031 0.625,1.5039 h -3.1445 q -0.1953,-0.3125 -0.3125,-0.70312 -0.098,-0.41016 -0.1563,-0.83985 -0.059,-0.42968 -0.078,-0.82031 -0.02,-0.41015 -0.02,-0.70312 v -4.33594 q 0,-0.78125 -0.2735,-1.54297 -0.2539,-0.78125 -0.8593,-1.38672 -0.586,-0.60547 -1.543,-0.97656 -0.957,-0.37109 -2.3242,-0.37109 h -8.2422 v 11.67968 h -2.8906 v -27.24609 h 11.1328 q 1.9922,0 3.5156,0.70312 1.543,0.6836 2.5781,1.79688 1.0547,1.09375 1.5821,2.48047 0.5468,1.38672 0.5468,2.77344 z m -16.4648,5.2539 h 8.2422 q 1.0742,0 2.0312,-0.41015 0.9571,-0.41016 1.6797,-1.13282 0.7422,-0.72265 1.1719,-1.67968 0.4297,-0.95704 0.4297,-2.07032 0,-1.09375 -0.4102,-2.01172 -0.3906,-0.9375 -1.1133,-1.62109 -0.7031,-0.68359 -1.6796,-1.05469 -0.9766,-0.39062 -2.1094,-0.39062 h -8.2422 z m 47.0117,0.58594 q 0,3.14453 -0.8203,5.78125 -0.8008,2.63672 -2.3633,4.55078 -1.5625,1.89453 -3.8476,2.94922 -2.2657,1.05469 -5.1954,1.05469 -2.9296,0 -5.2148,-1.05469 -2.2656,-1.05469 -3.8281,-2.94922 -1.543,-1.91406 -2.3633,-4.55078 -0.8008,-2.63672 -0.8008,-5.78125 0,-3.14453 0.8008,-5.76172 0.8203,-2.63672 2.3633,-4.51172 1.5625,-1.89453 3.8281,-2.94922 2.2852,-1.05468 5.2148,-1.05468 2.9297,0 5.1954,1.05468 2.2851,1.05469 3.8476,2.94922 1.5625,1.875 2.3633,4.51172 0.8203,2.61719 0.8203,5.76172 z m -2.9101,0 q 0,-2.75391 -0.7422,-4.92188 -0.7227,-2.1875 -1.9922,-3.6914 -1.25,-1.52344 -2.9492,-2.30469 -1.6993,-0.80078 -3.6329,-0.80078 -1.9726,0 -3.6718,0.80078 -1.6992,0.78125 -2.9492,2.30469 -1.25,1.5039 -1.9727,3.6914 -0.7031,2.16797 -0.7031,4.92188 0,2.75391 0.7031,4.94141 0.7227,2.1875 1.9727,3.71093 1.25,1.50391 2.9492,2.30469 1.6992,0.80078 3.6718,0.80078 1.9336,0 3.6329,-0.80078 1.6992,-0.80078 2.9492,-2.30469 1.2695,-1.52343 1.9922,-3.71093 0.7422,-2.1875 0.7422,-4.94141 z m 12.8906,-13.59375 8.6719,23.24219 8.8085,-23.24219 h 3.75 v 27.24609 h -2.8906 v -22.32422 l -8.1836,22.32422 h -2.6367 l -8.3594,-22.32422 v 22.32422 h -2.8906 v -27.24609 z"
           id="path2" /></g><path
         style="display:inline;opacity:1;fill:none;fill-opacity:1;stroke:#01426a;stroke-width:0.705001;stroke-opacity:1"
         d="m 103.66365,155.9007 69.28203,40 69.28203,-40.24398"
         id="path289" /><path
         style="opacity:1;fill:none;stroke:#01426a;stroke-width:0.705001"
         d="m 173.20509,180.24398 v 15.50603"
         id="path8" /></g><g
       id="g35"
       style="display:none"><text
         xml:space="preserve"
         transform="matrix(0.26458333,-0.15624418,0,0.26458333,-556.49626,242.30605)"
         id="text5"
         style="font-size:45.3333px;font-family:'Times New Roman';-inkscape-font-specification:'Times New Roman, ';text-align:end;white-space:pre;shape-inside:url(#rect5);display:inline;opacity:1;fill:#244c70;fill-opacity:1;stroke:none;stroke-width:2.66457;stroke-opacity:1"><tspan
           x="2563.1368"
           y="770.71925"
           id="tspan1">Sparse</tspan></text><text
         xml:space="preserve"
         transform="matrix(0.26458333,0.16048654,0,0.26458333,-464.29249,-574.37967)"
         id="text6"
         style="font-size:45.3333px;font-family:'Times New Roman';-inkscape-font-specification:'Times New Roman, ';text-align:end;white-space:pre;shape-inside:url(#rect6);display:inline;opacity:1;fill:#244c70;fill-opacity:1;stroke:none;stroke-width:2.66457;stroke-opacity:1"><tspan
           x="2399.4012"
           y="770.71925"
           id="tspan2">     NN-PGD      </tspan></text><path
         style="opacity:1;fill:none;stroke:#01426a;stroke-width:0.705001"
         d="M 173.20509,20.243981 V 5.1838936"
         id="path7" /><path
         style="opacity:1;fill:none;stroke:#01426a;stroke-width:0.705001;stroke-opacity:1"
         d="M 103.92305,45.183895 173.20509,5.1838936 242.48712,45.183895"
         id="path9" /></g></g></svg>
